<?xml version="1.0" standalone="no"?>
<!DOCTYPE svg PUBLIC "-//W3C//DTD SVG 20010904//EN"
 "http://www.w3.org/TR/2001/REC-SVG-20010904/DTD/svg10.dtd">
<svg version="1.0" xmlns="http://www.w3.org/2000/svg"
 width="300.000000pt" height="172.000000pt" viewBox="0 0 300.000000 172.000000"
 preserveAspectRatio="xMidYMid meet">
<metadata>
Created by potrace 1.10, written by Peter Selinger 2001-2011
</metadata>
<g transform="translate(0.000000,172.000000) scale(0.100000,-0.100000)"
fill="#000000" stroke="none">
<path d="M1370 1343 c-132 -14 -258 -52 -332 -100 -54 -35 -222 -166 -266
-207 -42 -39 -102 -137 -112 -183 -11 -49 17 -78 68 -69 41 6 122 79 122 109
0 27 42 64 90 78 28 8 67 35 112 76 97 89 222 139 407 163 81 11 275 -3 321
-23 14 -6 33 -9 44 -8 20 3 86 -29 86 -41 0 -5 11 -8 24 -8 14 0 31 -9 39 -20
8 -12 32 -30 53 -40 44 -23 53 -25 36 -8 -7 7 -12 17 -12 23 1 5 10 -1 20 -14
11 -13 20 -19 20 -13 0 10 -90 92 -165 149 -50 38 -84 56 -110 57 -11 1 -19 7
-18 13 3 14 -114 51 -202 63 -68 9 -155 11 -225 3z m288 -24 c6 -1 12 -5 12
-9 0 -4 19 -10 42 -13 22 -3 53 -14 67 -25 14 -10 37 -22 51 -25 25 -6 57 -28
114 -79 40 -35 16 -36 -44 -2 -25 14 -58 27 -75 28 -16 1 -39 7 -50 13 -11 6
-47 11 -80 11 -33 1 -71 4 -85 7 -58 14 -190 2 -310 -30 -14 -3 -36 -8 -50
-11 -13 -3 -29 -9 -36 -15 -6 -5 -13 -7 -16 -4 -3 3 -11 -1 -18 -10 -7 -8 -21
-15 -31 -15 -11 0 -19 -4 -19 -8 0 -5 -9 -13 -19 -18 -11 -5 -44 -32 -75 -61
-33 -30 -72 -57 -94 -63 -43 -11 -93 -53 -110 -92 -30 -72 -114 -121 -148 -86
-13 13 -13 21 2 64 26 76 72 134 170 210 127 99 203 154 213 154 6 0 11 5 11
10 0 6 6 10 13 10 8 0 28 7 45 15 17 9 39 18 49 20 10 2 38 8 63 14 25 6 56
12 70 14 24 4 310 0 338 -4z m362 -222 c0 -6 -9 -2 -20 8 -11 10 -20 23 -20
28 0 6 9 2 20 -8 11 -10 20 -23 20 -28z"/>
<path d="M2073 992 c29 -26 60 -54 70 -61 15 -12 17 -12 11 3 -3 9 -9 16 -14
16 -11 0 -66 55 -73 74 -4 9 -15 16 -26 16 -15 0 -8 -11 32 -48z"/>
<path d="M2140 1016 c0 -2 8 -10 18 -17 15 -13 16 -12 3 4 -13 16 -21 21 -21
13z"/>
<path d="M1231 888 c-154 -23 -320 -194 -386 -397 -26 -80 -17 -169 24 -226
17 -24 31 -48 31 -53 0 -20 46 -65 84 -83 50 -23 109 -24 166 -4 23 8 69 15
100 15 65 0 184 21 245 43 39 14 41 14 59 -10 65 -87 232 -81 314 12 36 42 39
43 68 30 17 -7 47 -27 67 -45 20 -18 37 -27 37 -22 0 15 -70 71 -106 84 -30
11 -31 13 -22 46 14 50 -4 103 -47 141 -41 36 -43 41 -11 41 64 0 191 124 216
210 23 82 -3 162 -67 201 -37 23 -115 27 -180 10 -101 -27 -238 -152 -297
-270 -79 -157 -87 -262 -28 -346 l32 -46 -28 -10 c-53 -20 -148 -38 -234 -44
-86 -5 -103 0 -73 25 18 15 56 115 51 132 -3 7 -7 26 -11 43 l-7 30 22 -25
c26 -30 22 -93 -9 -146 -25 -42 -27 -62 -5 -43 39 32 61 121 44 174 -6 19 -27
48 -46 64 -39 35 -41 41 -14 41 31 0 95 36 134 75 111 111 126 259 34 328 -34
26 -91 35 -157 25z m-49 -45 c-18 -7 -100 -69 -140 -107 -44 -40 -114 -148
-137 -208 -20 -55 -40 -65 -30 -15 4 17 10 34 14 37 3 3 7 12 9 20 8 35 80
135 132 183 54 50 150 109 160 99 3 -3 -1 -7 -8 -9z m208 -8 c18 -20 22 -32
17 -64 -15 -117 -145 -263 -242 -273 -38 -4 -37 0 22 119 25 51 43 99 40 108
-9 22 -40 18 -66 -9 -43 -46 -161 -357 -161 -425 0 -31 25 -60 39 -45 5 5 21
50 36 99 15 50 30 94 35 98 11 12 79 -22 91 -46 36 -66 23 -150 -30 -201 -29
-28 -31 -28 -83 -16 -29 7 -74 21 -99 32 l-46 19 9 52 c5 29 27 90 48 135 22
46 40 86 40 88 0 15 -32 -2 -62 -33 -43 -45 -77 -110 -87 -166 l-7 -42 -16 30
c-21 40 -31 107 -23 145 7 30 8 31 26 14 17 -16 19 -15 30 12 64 158 125 241
234 319 82 59 119 74 181 75 41 0 55 -5 74 -25z m393 -15 c-93 -62 -187 -161
-227 -241 -20 -39 -36 -79 -36 -90 0 -11 -4 -17 -10 -14 -5 3 -10 13 -10 22 0
22 51 133 61 133 5 0 9 6 9 13 0 7 14 29 31 48 17 19 34 39 37 44 7 11 112 91
147 112 11 6 28 12 39 12 10 1 -7 -16 -41 -39z m228 11 c18 -19 29 -40 29 -58
0 -69 -93 -201 -173 -247 -48 -27 -93 -40 -101 -28 -3 4 18 54 46 110 27 57
47 109 44 117 -9 23 -40 18 -68 -12 -49 -54 -163 -368 -156 -430 3 -28 0 -34
-26 -43 -16 -5 -30 -9 -32 -8 -9 10 23 117 56 186 22 46 40 86 40 88 0 15 -32
-2 -62 -33 -45 -47 -76 -106 -86 -164 l-8 -44 -16 30 c-20 38 -32 116 -24 151
7 25 8 26 26 9 19 -17 20 -16 31 11 67 163 108 221 212 300 128 97 215 118
268 65z m-811 -125 c0 -8 -18 -52 -40 -97 -45 -94 -47 -105 -22 -132 16 -18
16 -19 -4 -16 -24 4 -54 -17 -54 -37 0 -8 -4 -14 -10 -14 -5 0 -9 -3 -8 -7 5
-15 -25 -123 -34 -123 -14 0 -9 44 11 101 48 140 94 257 117 296 25 43 44 55
44 29z m221 -30 c-14 -48 -77 -128 -127 -161 -29 -19 -59 -35 -67 -35 -8 0
-20 -7 -27 -15 -14 -17 -40 -20 -40 -5 0 6 8 13 18 16 88 28 171 103 215 195
21 45 41 48 28 5z m419 39 c0 -3 -18 -40 -39 -83 -22 -42 -43 -89 -46 -105
-10 -38 10 -60 47 -52 16 4 28 2 28 -4 0 -17 -16 -21 -51 -11 -45 13 -61 -5
-89 -98 -12 -42 -25 -70 -31 -66 -11 6 -4 52 14 94 6 14 12 30 12 35 5 31 76
207 102 253 13 23 30 42 38 42 8 0 15 -2 15 -5z m201 -57 c-48 -94 -76 -124
-148 -161 -53 -28 -61 -19 -11 13 26 16 72 62 105 105 62 80 82 96 54 43z
m-1070 -251 c-10 -23 -22 -57 -26 -75 -3 -17 -11 -34 -15 -37 -5 -3 -7 -19 -3
-35 6 -31 -10 -42 -21 -14 -10 26 3 74 44 157 28 59 46 62 21 4z m619 -28
c-26 -66 -40 -138 -29 -145 5 -3 9 -15 9 -27 0 -20 -1 -20 -17 -4 -28 28 -21
107 18 185 37 76 50 71 19 -9z m216 44 c30 -19 46 -62 42 -114 l-3 -44 -83 -2
c-75 -2 -83 -1 -78 15 3 9 15 49 27 87 12 39 23 74 26 78 6 9 40 0 69 -20z
m86 -84 c10 -48 -8 -108 -45 -146 -32 -34 -63 -47 -35 -15 34 37 60 111 56
157 -4 53 13 56 24 4z m-62 -103 c0 -22 -66 -74 -109 -86 -28 -7 -47 -7 -68 1
-28 10 -73 47 -73 59 0 4 26 12 58 18 31 7 66 13 77 16 51 10 115 6 115 -8z
m-800 -66 c25 -7 52 -15 60 -18 8 -3 22 -4 30 -3 11 2 12 0 4 -9 -13 -13 -88
1 -134 25 -15 8 -31 11 -34 7 -8 -8 -26 17 -26 36 0 10 8 8 28 -6 15 -11 47
-25 72 -32z"/>
<path d="M2226 855 c3 -16 11 -34 16 -40 6 -6 7 1 2 20 -3 17 -11 35 -16 40
-6 6 -7 -1 -2 -20z"/>
<path d="M2370 628 c-47 -16 -139 -54 -205 -82 -158 -68 -158 -72 5 -142 272
-118 354 -134 423 -81 79 60 98 174 43 257 -57 87 -125 99 -266 48z m190 7
c24 -13 23 -13 -16 -8 -31 4 -77 -6 -192 -41 -84 -25 -155 -46 -159 -45 -12 0
81 38 187 75 104 36 142 40 180 19z m18 -30 c31 -9 55 -57 43 -89 l-10 -24
-38 19 c-25 13 -58 19 -100 19 -62 0 -353 -34 -389 -46 -15 -4 -16 -3 -4 4 13
8 369 113 425 125 21 5 34 3 73 -8z m74 -164 l-5 -35 -13 36 c-10 29 -10 44
-1 68 l12 31 7 -32 c3 -18 4 -48 0 -68z m-73 52 c24 -15 24 -16 6 -29 -49 -36
-159 -36 -406 0 l-84 12 155 17 c222 25 221 25 265 20 22 -3 51 -12 64 -20z
m-374 -48 c55 -8 150 -18 212 -22 101 -5 115 -4 152 16 23 11 43 21 45 21 11
0 11 -53 1 -74 -7 -14 -11 -27 -8 -29 2 -3 -10 -15 -27 -27 -48 -35 -107 -29
-254 26 -70 25 -126 48 -124 49 2 2 66 -15 143 -36 144 -42 221 -47 248 -19
10 10 7 11 -13 5 -14 -5 -44 -8 -67 -7 -41 0 -404 96 -433 114 -12 7 -10 8 5
4 11 -3 65 -13 120 -21z"/>
<path d="M276 519 c-33 -26 -35 -70 -5 -100 21 -21 26 -21 218 -15 108 4 212
11 231 15 31 6 35 11 38 42 2 21 -3 40 -10 46 -13 11 -276 33 -388 33 -43 0
-64 -5 -84 -21z m299 -5 c158 -7 177 -13 171 -51 -3 -14 -6 -27 -8 -28 -2 -2
-95 -8 -208 -15 -239 -13 -260 -10 -260 44 0 18 6 38 13 44 16 14 63 21 112
16 22 -2 103 -6 180 -10z"/>
<path d="M297 494 c-13 -14 -7 -43 12 -53 24 -13 55 8 50 35 -4 19 -48 32 -62
18z m43 -24 c0 -21 -24 -28 -35 -10 -8 14 3 30 21 30 8 0 14 -9 14 -20z"/>
<path d="M490 450 c-64 -5 -54 -7 67 -8 86 -1 144 2 148 8 7 11 -87 11 -215 0z"/>
<path d="M1345 309 c-4 -13 -1 -27 8 -36 12 -12 18 -13 36 -2 18 12 36 38 29
44 -2 1 -17 5 -35 8 -26 5 -33 3 -38 -14z"/>
</g>
</svg>
