<svg id="svg" version="1.1" xmlns="http://www.w3.org/2000/svg" xmlns:xlink="http://www.w3.org/1999/xlink" width="400" height="463.4772462077013" viewBox="0, 0, 400,463.4772462077013"><g id="svgg"><path id="path0" d="M90.170 28.800 C 90.170 33.530,90.228 35.465,90.298 33.100 C 90.369 30.735,90.369 26.865,90.298 24.500 C 90.228 22.135,90.170 24.070,90.170 28.800 M31.646 38.064 C 30.241 38.265,28.351 38.766,27.446 39.178 C 26.541 39.589,24.727 40.302,23.416 40.762 C 22.105 41.222,20.881 41.869,20.697 42.199 C 20.512 42.530,20.110 42.800,19.804 42.800 C 18.216 42.800,10.021 50.227,7.660 53.807 C 5.609 56.916,5.496 57.126,2.940 62.603 C 0.891 66.994,0.527 78.541,0.440 141.900 L 0.400 171.600 200.223 171.600 L 400.045 171.600 399.884 121.500 C 399.796 93.945,399.594 70.680,399.435 69.800 C 398.850 66.557,397.903 62.978,397.423 62.200 C 397.151 61.760,396.611 60.558,396.221 59.529 C 395.832 58.500,395.218 57.330,394.857 56.929 C 394.496 56.528,393.943 55.701,393.628 55.092 C 393.313 54.482,392.276 53.042,391.323 51.892 C 389.101 49.210,389.139 49.252,387.313 47.600 C 384.716 45.252,383.780 44.539,381.750 43.361 C 380.678 42.739,379.745 42.103,379.677 41.947 C 379.610 41.792,378.170 41.165,376.477 40.555 C 374.785 39.944,373.308 39.314,373.196 39.154 C 372.595 38.298,366.322 37.578,360.400 37.687 L 354.200 37.800 353.987 64.600 C 353.750 94.371,353.844 93.300,350.954 99.075 C 349.069 102.843,345.123 106.711,341.333 108.505 L 338.600 109.800 331.569 109.800 L 324.538 109.800 321.098 108.095 C 312.116 103.643,309.219 97.043,309.206 81.000 C 309.202 75.940,309.080 64.105,308.934 54.700 L 308.670 37.600 199.135 37.600 L 89.600 37.600 89.593 63.700 C 89.585 93.072,89.595 92.959,86.722 98.758 C 84.524 103.195,81.600 106.163,77.366 108.256 L 74.245 109.798 68.395 109.941 C 56.397 110.234,50.492 106.541,46.256 96.096 L 45.000 93.000 44.885 65.300 L 44.769 37.600 39.485 37.649 C 36.578 37.677,33.051 37.863,31.646 38.064 " stroke="none" fill="#0003c9" fill-rule="evenodd"></path><path id="path1" d="M0.756 287.300 C 0.731 350.495,0.745 402.650,0.787 403.200 C 1.972 418.974,14.096 433.426,29.737 437.707 L 33.000 438.600 200.200 438.600 L 367.400 438.600 370.700 437.719 C 383.790 434.226,394.595 423.730,397.967 411.234 C 400.116 403.269,399.999 410.422,399.999 286.900 L 400.000 172.400 200.400 172.400 L 0.800 172.400 0.756 287.300 M89.400 241.600 L 89.400 263.800 67.100 263.903 L 44.800 264.007 44.800 241.600 L 44.800 219.193 67.100 219.297 L 89.400 219.400 89.400 241.600 M156.303 241.500 L 156.200 263.800 134.000 263.800 L 111.800 263.800 111.697 241.500 L 111.593 219.200 134.000 219.200 L 156.407 219.200 156.303 241.500 M223.200 241.600 L 223.200 264.000 201.000 264.000 L 178.800 264.000 178.800 241.600 L 178.800 219.200 201.000 219.200 L 223.200 219.200 223.200 241.600 M288.400 241.600 L 288.400 264.000 266.200 264.000 L 244.000 264.000 244.000 241.600 L 244.000 219.200 266.200 219.200 L 288.400 219.200 288.400 241.600 M353.800 241.600 L 353.800 263.800 331.600 263.800 L 309.400 263.800 309.297 241.497 L 309.193 219.193 331.497 219.297 L 353.800 219.400 353.800 241.600 M89.400 307.600 L 89.400 329.800 67.100 329.903 L 44.800 330.007 44.800 307.600 L 44.800 285.193 67.100 285.297 L 89.400 285.400 89.400 307.600 M156.303 307.703 L 156.407 330.007 134.103 329.903 L 111.800 329.800 111.696 308.000 C 111.639 296.010,111.679 285.973,111.785 285.697 C 111.937 285.299,116.613 285.215,134.089 285.297 L 156.200 285.400 156.303 307.703 M223.200 307.600 L 223.200 330.000 201.000 330.000 L 178.800 330.000 178.800 307.600 L 178.800 285.200 201.000 285.200 L 223.200 285.200 223.200 307.600 M288.400 307.600 L 288.400 330.000 266.200 330.000 L 244.000 330.000 244.000 307.600 L 244.000 285.200 266.200 285.200 L 288.400 285.200 288.400 307.600 M353.800 307.600 L 353.800 329.800 331.500 329.903 L 309.200 330.007 309.200 307.870 C 309.200 295.695,309.322 285.612,309.470 285.463 C 309.619 285.315,319.654 285.240,331.770 285.297 L 353.800 285.400 353.800 307.600 M89.400 373.600 L 89.400 395.800 67.100 395.903 L 44.800 396.007 44.800 373.600 L 44.800 351.193 67.100 351.297 L 89.400 351.400 89.400 373.600 M156.400 373.600 L 156.400 396.000 134.000 396.000 L 111.600 396.000 111.600 373.867 C 111.600 361.693,111.720 351.613,111.867 351.467 C 112.013 351.320,122.093 351.200,134.267 351.200 L 156.400 351.200 156.400 373.600 M223.200 373.600 L 223.200 396.000 201.000 396.000 L 178.800 396.000 178.800 373.600 L 178.800 351.200 201.000 351.200 L 223.200 351.200 223.200 373.600 M288.400 373.600 L 288.400 396.000 266.200 396.000 L 244.000 396.000 244.000 373.600 L 244.000 351.200 266.200 351.200 L 288.400 351.200 288.400 373.600 M353.803 352.100 C 353.923 352.595,353.972 362.630,353.911 374.400 L 353.800 395.800 331.500 395.903 L 309.200 396.007 309.200 373.603 L 309.200 351.200 331.392 351.200 L 353.585 351.200 353.803 352.100 " stroke="none" fill="#fcfcfc" fill-rule="evenodd"></path><path id="path2" d="M59.712 1.004 C 58.344 1.302,56.791 1.782,56.262 2.072 C 53.179 3.764,52.450 4.240,51.000 5.511 C 47.867 8.256,46.091 11.175,44.846 15.626 C 43.745 19.563,43.543 36.939,44.594 37.342 C 45.097 37.535,45.204 39.361,45.294 49.285 L 45.400 61.000 67.200 61.000 L 89.000 61.000 89.097 49.600 C 89.157 42.674,89.358 37.886,89.612 37.400 C 89.878 36.889,89.984 33.058,89.905 26.800 C 89.738 13.543,89.304 12.048,83.931 6.225 C 79.311 1.219,68.976 -1.009,59.712 1.004 M325.361 0.799 C 322.852 1.167,320.398 1.935,319.600 2.603 C 319.270 2.879,318.570 3.237,318.044 3.397 C 316.264 3.941,312.109 8.638,310.504 11.923 L 309.000 15.000 308.876 26.156 C 308.794 33.634,308.893 37.453,309.176 37.736 C 309.455 38.015,309.600 42.047,309.600 49.480 L 309.600 60.800 331.600 60.800 L 353.600 60.800 353.600 49.224 C 353.600 41.937,353.748 37.556,354.000 37.400 C 354.643 37.002,354.500 19.130,353.828 16.000 C 351.366 4.533,340.278 -1.388,325.361 0.799 M0.499 287.100 L 0.599 402.200 0.700 287.300 L 0.801 172.401 200.501 172.300 L 400.200 172.199 200.300 172.100 L 0.400 172.000 0.499 287.100 M44.800 241.600 L 44.800 264.007 67.100 263.903 L 89.400 263.800 89.400 241.600 L 89.400 219.400 67.100 219.297 L 44.800 219.193 44.800 241.600 M111.697 241.500 L 111.800 263.800 134.000 263.800 L 156.200 263.800 156.303 241.500 L 156.407 219.200 134.000 219.200 L 111.593 219.200 111.697 241.500 M178.800 241.600 L 178.800 264.000 201.000 264.000 L 223.200 264.000 223.200 241.600 L 223.200 219.200 201.000 219.200 L 178.800 219.200 178.800 241.600 M244.000 241.600 L 244.000 264.000 266.200 264.000 L 288.400 264.000 288.400 241.600 L 288.400 219.200 266.200 219.200 L 244.000 219.200 244.000 241.600 M309.297 241.497 L 309.400 263.800 331.600 263.800 L 353.800 263.800 353.800 241.600 L 353.800 219.400 331.497 219.297 L 309.193 219.193 309.297 241.497 M44.800 307.600 L 44.800 330.007 67.100 329.903 L 89.400 329.800 89.400 307.600 L 89.400 285.400 67.100 285.297 L 44.800 285.193 44.800 307.600 M111.785 285.697 C 111.679 285.973,111.639 296.010,111.696 308.000 L 111.800 329.800 134.103 329.903 L 156.407 330.007 156.303 307.703 L 156.200 285.400 134.089 285.297 C 116.613 285.215,111.937 285.299,111.785 285.697 M178.800 307.600 L 178.800 330.000 201.000 330.000 L 223.200 330.000 223.200 307.600 L 223.200 285.200 201.000 285.200 L 178.800 285.200 178.800 307.600 M244.000 307.600 L 244.000 330.000 266.200 330.000 L 288.400 330.000 288.400 307.600 L 288.400 285.200 266.200 285.200 L 244.000 285.200 244.000 307.600 M309.470 285.463 C 309.322 285.612,309.200 295.695,309.200 307.870 L 309.200 330.007 331.500 329.903 L 353.800 329.800 353.800 307.600 L 353.800 285.400 331.770 285.297 C 319.654 285.240,309.619 285.315,309.470 285.463 M44.800 373.600 L 44.800 396.007 67.100 395.903 L 89.400 395.800 89.400 373.600 L 89.400 351.400 67.100 351.297 L 44.800 351.193 44.800 373.600 M111.867 351.467 C 111.720 351.613,111.600 361.693,111.600 373.867 L 111.600 396.000 134.000 396.000 L 156.400 396.000 156.400 373.600 L 156.400 351.200 134.267 351.200 C 122.093 351.200,112.013 351.320,111.867 351.467 M178.800 373.600 L 178.800 396.000 201.000 396.000 L 223.200 396.000 223.200 373.600 L 223.200 351.200 201.000 351.200 L 178.800 351.200 178.800 373.600 M244.000 373.600 L 244.000 396.000 266.200 396.000 L 288.400 396.000 288.400 373.600 L 288.400 351.200 266.200 351.200 L 244.000 351.200 244.000 373.600 M309.200 373.603 L 309.200 396.007 331.500 395.903 L 353.800 395.800 353.911 374.400 C 353.972 362.630,353.923 352.595,353.803 352.100 L 353.585 351.200 331.392 351.200 L 309.200 351.200 309.200 373.603 M399.471 404.500 C 397.123 420.925,386.149 433.596,370.700 437.719 L 367.400 438.600 200.200 438.600 L 33.000 438.600 29.737 437.707 C 15.703 433.865,5.520 423.367,2.062 409.175 C 0.601 403.175,0.398 403.957,0.410 415.533 C 0.425 428.657,1.087 434.548,3.003 438.600 C 3.315 439.260,3.936 440.610,4.383 441.600 C 8.652 451.050,18.284 459.193,28.800 462.244 C 32.041 463.184,361.368 463.703,368.000 462.778 C 372.459 462.157,380.915 459.054,382.000 457.642 C 382.110 457.499,382.740 457.045,383.400 456.633 C 386.475 454.716,391.767 449.251,393.892 445.800 C 397.389 440.118,398.941 435.520,399.615 428.841 C 400.123 423.816,399.987 400.889,399.471 404.500 " stroke="none" fill="#bbc3cb" fill-rule="evenodd"></path><path id="path3" d="M309.506 64.200 C 309.595 79.113,309.833 91.223,310.066 92.598 C 311.139 98.953,315.812 105.203,321.532 107.935 L 324.600 109.400 331.600 109.400 L 338.600 109.400 341.328 108.023 C 345.009 106.164,348.798 102.372,350.681 98.662 C 353.220 93.658,353.301 93.008,353.493 76.100 L 353.666 60.800 331.639 60.800 L 309.612 60.800 309.482 49.500 C 309.411 43.285,309.422 49.900,309.506 64.200 M45.200 75.774 C 45.200 94.930,45.805 97.597,51.534 103.694 C 55.893 108.334,58.485 109.348,66.434 109.527 L 72.669 109.668 76.034 108.344 C 82.264 105.892,87.060 99.763,88.573 92.317 C 89.072 89.863,89.200 86.355,89.200 75.117 L 89.200 61.000 67.200 61.000 L 45.200 61.000 45.200 75.774 " stroke="none" fill="#93a4a4" fill-rule="evenodd"></path><path id="path4" d="M308.570 28.200 C 308.571 33.040,308.629 34.965,308.699 32.478 C 308.769 29.991,308.769 26.031,308.698 23.678 C 308.628 21.325,308.570 23.360,308.570 28.200 M38.300 37.495 C 39.455 37.576,41.345 37.576,42.500 37.495 C 43.655 37.414,42.710 37.348,40.400 37.348 C 38.090 37.348,37.145 37.414,38.300 37.495 M199.394 37.500 L 308.788 37.601 308.903 49.001 L 309.019 60.400 309.009 48.900 L 309.000 37.400 199.500 37.399 L 90.000 37.398 199.394 37.500 M354.070 37.715 C 353.779 38.066,353.594 46.743,353.491 64.815 C 353.383 83.964,353.205 91.890,352.856 93.153 C 352.590 94.117,352.451 94.985,352.548 95.081 C 353.466 95.999,353.755 89.808,353.971 64.600 L 354.200 37.800 359.200 37.581 L 364.200 37.362 359.349 37.281 C 355.796 37.222,354.383 37.338,354.070 37.715 M89.297 63.517 C 89.216 85.007,89.097 89.740,88.573 92.317 C 87.081 99.659,82.268 105.873,76.200 108.295 C 74.440 108.998,73.381 109.578,73.846 109.586 C 77.467 109.646,84.087 104.077,86.723 98.755 C 89.625 92.898,89.619 92.963,89.500 63.712 L 89.394 37.800 89.297 63.517 M44.983 65.600 L 45.000 93.000 46.256 96.096 C 49.172 103.288,54.586 108.534,60.000 109.415 C 61.171 109.606,61.073 109.519,59.400 108.884 C 53.054 106.474,48.751 101.967,46.338 95.200 C 45.412 92.604,45.410 92.557,45.188 65.400 L 44.965 38.200 44.983 65.600 M309.381 76.000 C 309.381 84.250,309.434 87.625,309.499 83.500 C 309.564 79.375,309.564 72.625,309.499 68.500 C 309.434 64.375,309.381 67.750,309.381 76.000 M399.714 75.400 C 399.717 76.500,399.795 76.903,399.887 76.295 C 399.979 75.686,399.977 74.786,399.882 74.295 C 399.787 73.803,399.711 74.300,399.714 75.400 M0.583 90.200 C 0.583 99.220,0.635 102.967,0.699 98.527 C 0.764 94.087,0.764 86.707,0.700 82.127 C 0.635 77.547,0.583 81.180,0.583 90.200 M310.631 96.000 C 312.105 101.670,320.585 109.710,324.946 109.573 C 325.473 109.557,325.186 109.352,324.200 109.038 C 318.916 107.360,314.581 103.537,311.977 98.256 C 311.093 96.465,310.488 95.450,310.631 96.000 M350.774 98.463 C 347.166 105.942,341.665 109.251,332.200 109.633 L 325.800 109.891 332.200 109.846 C 340.043 109.790,342.203 109.010,346.791 104.581 C 349.299 102.159,352.939 96.406,352.341 95.808 C 352.235 95.701,351.529 96.896,350.774 98.463 M64.300 109.897 C 65.895 109.973,68.505 109.973,70.100 109.897 C 71.695 109.821,70.390 109.759,67.200 109.759 C 64.010 109.759,62.705 109.821,64.300 109.897 M100.333 171.900 C 155.406 171.956,245.406 171.956,300.333 171.900 C 355.260 171.844,310.200 171.798,200.200 171.798 C 90.200 171.798,45.260 171.844,100.333 171.900 " stroke="none" fill="#9690a2" fill-rule="evenodd"></path></g></svg>