<?xml version="1.0" standalone="no"?>
<!DOCTYPE svg PUBLIC "-//W3C//DTD SVG 20010904//EN"
 "http://www.w3.org/TR/2001/REC-SVG-20010904/DTD/svg10.dtd">
<svg version="1.0" xmlns="http://www.w3.org/2000/svg"
 width="714.000000pt" height="622.000000pt" viewBox="0 0 714.000000 622.000000"
 preserveAspectRatio="xMidYMid meet">
<metadata>
Created by potrace 1.16, written by Peter Selinger 2001-2019
</metadata>
<g transform="translate(0.000000,622.000000) scale(0.100000,-0.100000)"
fill="#000000" stroke="none">
<path d="M2350 5579 c-450 -55 -838 -210 -1149 -459 -594 -475 -730 -1196
-337 -1790 65 -97 67 -113 35 -240 -28 -112 -94 -272 -175 -430 -75 -145 -78
-173 -24 -233 27 -31 31 -32 102 -31 56 1 99 10 186 39 119 40 353 150 484
228 102 60 109 62 164 38 82 -37 141 -26 170 31 49 94 -58 183 -221 183 -88 0
-82 2 -269 -104 -150 -85 -352 -178 -362 -168 -3 2 12 39 31 81 70 154 125
333 140 457 9 75 -12 148 -68 230 -146 215 -207 401 -207 631 0 305 114 562
360 808 261 261 608 430 1040 507 125 22 176 26 370 27 240 1 336 -8 528 -50
301 -67 606 -211 815 -385 33 -27 70 -52 83 -55 63 -16 124 31 124 95 0 51
-32 89 -148 174 -280 205 -582 329 -967 398 -98 18 -168 22 -375 25 -140 1
-289 -2 -330 -7z"/>
<path d="M3980 4779 c-613 -63 -1170 -306 -1554 -678 -267 -260 -424 -534
-498 -867 -31 -144 -31 -434 0 -581 116 -537 498 -985 1087 -1274 732 -359
1640 -382 2412 -62 84 34 140 52 153 48 11 -3 70 -36 132 -72 334 -194 660
-323 815 -323 49 0 59 4 88 33 20 20 36 48 40 71 6 32 2 48 -34 114 -160 295
-262 562 -278 729 l-6 63 71 107 c122 185 198 366 244 577 31 144 31 416 0
562 -66 306 -210 574 -436 811 -396 416 -972 677 -1635 743 -121 12 -479 11
-601 -1z m674 -214 c538 -72 1013 -285 1348 -604 244 -232 398 -503 453 -800
19 -106 20 -322 0 -434 -30 -170 -119 -385 -219 -527 -83 -117 -101 -164 -100
-255 2 -138 66 -359 175 -598 32 -72 57 -132 55 -135 -15 -15 -388 161 -566
268 -127 76 -166 90 -239 90 -42 0 -77 -10 -141 -37 -231 -98 -497 -174 -743
-211 -143 -21 -604 -24 -747 -4 -395 56 -730 172 -1030 358 -883 546 -1054
1522 -389 2218 384 402 914 632 1589 690 95 8 440 -3 554 -19z"/>
<path d="M3316 3274 c-167 -53 -255 -217 -207 -385 33 -118 159 -212 284 -213
163 -1 292 111 313 269 7 62 -14 151 -50 206 -71 106 -222 161 -340 123z m155
-223 c23 -23 29 -38 29 -71 0 -109 -149 -140 -190 -40 -42 102 83 189 161 111z"/>
<path d="M4230 3281 c-98 -22 -174 -81 -217 -169 -22 -47 -27 -71 -27 -132 0
-157 95 -269 256 -301 97 -20 232 32 288 111 118 166 65 384 -115 469 -48 22
-135 33 -185 22z m109 -215 c15 -8 32 -26 39 -41 47 -103 -75 -193 -157 -116
-25 24 -31 37 -31 71 0 79 76 123 149 86z"/>
<path d="M5111 3280 c-89 -19 -173 -89 -215 -179 -29 -63 -28 -178 1 -242 51
-114 154 -182 277 -183 62 0 82 4 139 32 111 55 166 145 167 273 0 65 -4 85
-31 137 -16 34 -45 73 -62 88 -73 62 -186 92 -276 74z m125 -218 c82 -66 39
-182 -66 -182 -48 0 -90 47 -90 100 0 81 96 131 156 82z"/>
</g>
</svg>
