<?xml version="1.0" standalone="no"?>
<!DOCTYPE svg PUBLIC "-//W3C//DTD SVG 20010904//EN"
 "http://www.w3.org/TR/2001/REC-SVG-20010904/DTD/svg10.dtd">
<svg version="1.0" xmlns="http://www.w3.org/2000/svg"
 width="300.000000pt" height="300.000000pt" viewBox="0 0 300.000000 300.000000"
 preserveAspectRatio="xMidYMid meet">
<metadata>
Created by potrace 1.10, written by Peter Selinger 2001-2011
</metadata>
<g transform="translate(0.000000,300.000000) scale(0.100000,-0.100000)"
fill="#000000" stroke="none">
<path d="M1516 1974 c-9 -9 -14 -19 -11 -24 3 -4 -28 -15 -68 -24 -126 -28
-235 -111 -295 -224 -55 -104 -58 -99 59 -107 98 -7 103 -6 156 21 114 57 366
39 422 -32 31 -39 17 -57 -38 -50 -25 3 -182 9 -348 12 -278 7 -303 6 -303 -9
0 -11 -8 -17 -23 -17 -56 0 -87 -59 -49 -93 17 -15 67 -17 520 -17 442 0 502
2 516 16 36 35 4 94 -51 94 -19 0 -24 8 -34 59 -6 32 -23 83 -38 112 l-27 54
-130 0 c-126 0 -132 -1 -172 -27 -31 -21 -54 -28 -89 -28 -55 0 -223 26 -232
36 -3 3 49 3 117 -1 87 -5 122 -4 122 4 0 7 -27 11 -72 12 -40 0 -95 4 -123 9
-40 6 -26 8 73 9 74 0 122 5 122 11 0 6 -48 10 -122 11 -145 1 -124 16 25 18
66 1 97 5 97 13 0 8 -33 9 -122 5 -142 -7 -134 4 18 27 111 17 142 13 194 -25
27 -21 45 -24 143 -27 l112 -4 -30 32 c-39 41 -161 101 -219 107 -36 4 -46 10
-46 24 0 28 -35 43 -54 23z m80 -70 c66 -11 184 -61 184 -78 0 -17 -136 0
-166 21 -48 34 -91 41 -169 27 -38 -7 -79 -13 -90 -13 -28 0 67 36 115 44 21
4 44 13 51 21 10 13 14 12 29 -1 10 -9 30 -18 46 -21z m-336 -148 c0 -52 10
-62 75 -71 51 -6 97 -25 65 -25 -8 0 -33 -10 -55 -21 -35 -19 -49 -21 -119
-15 -44 4 -82 9 -84 11 -14 13 87 165 109 165 5 0 9 -20 9 -44z m632 -52 c17
-16 35 -65 58 -161 9 -35 16 -44 38 -49 48 -10 54 -14 50 -31 -3 -17 -36 -18
-486 -23 -266 -3 -492 -2 -503 2 -31 12 -19 41 20 49 18 4 37 13 41 20 7 10
67 11 292 4 407 -12 418 -11 418 40 0 48 -79 98 -188 120 -33 7 -33 7 -12 22
46 33 238 37 272 7z"/>
<path d="M1090 1280 c0 -48 3 -60 16 -60 11 0 14 6 9 20 -5 16 -2 20 14 20 14
0 21 -6 21 -20 0 -11 7 -20 15 -20 12 0 15 13 15 60 0 47 -3 60 -15 60 -10 0
-15 -10 -15 -30 0 -22 -5 -30 -18 -30 -15 0 -18 6 -14 30 3 23 0 30 -12 30
-13 0 -16 -11 -16 -60z"/>
<path d="M1218 1280 c-21 -46 -23 -60 -12 -60 8 0 14 5 14 10 0 6 9 10 20 10
11 0 20 -4 20 -10 0 -5 7 -10 15 -10 19 0 19 -4 -8 64 l-23 57 -26 -61z m32
-20 c0 -5 -4 -10 -10 -10 -5 0 -10 5 -10 10 0 6 5 10 10 10 6 0 10 -4 10 -10z"/>
<path d="M1308 1280 c3 -43 8 -60 18 -60 10 0 12 9 7 33 l-6 32 37 -34 36 -35
0 62 c0 51 -3 62 -16 62 -13 0 -15 -7 -10 -32 l6 -32 -33 32 c-18 18 -35 32
-37 32 -3 0 -3 -27 -2 -60z"/>
<path d="M1430 1280 c0 -60 0 -60 30 -60 34 0 70 31 70 60 0 29 -36 60 -70 60
-30 0 -30 0 -30 -60z m66 15 c7 -27 -10 -55 -32 -55 -10 0 -14 13 -14 40 0 33
3 40 20 40 13 0 22 -9 26 -25z"/>
<path d="M1565 1315 c-4 -17 -11 -45 -15 -62 -6 -25 -5 -33 5 -33 8 0 15 12
17 28 l4 27 14 -30 13 -30 10 28 c13 34 27 35 27 2 0 -16 6 -25 15 -25 18 0
18 0 1 70 l-14 55 -17 -40 -18 -40 -18 40 -18 39 -6 -29z"/>
<path d="M1722 1320 c-5 -14 -17 -42 -25 -62 -13 -31 -14 -38 -2 -38 7 0 15 6
18 13 3 9 10 9 30 -2 15 -8 29 -12 32 -10 2 3 -6 32 -20 64 -22 56 -24 58 -33
35z m18 -61 c0 -5 -4 -9 -10 -9 -5 0 -10 7 -10 16 0 8 5 12 10 9 6 -3 10 -10
10 -16z"/>
<path d="M1800 1280 c0 -60 0 -60 30 -60 34 0 70 31 70 60 0 29 -36 60 -70 60
-30 0 -30 0 -30 -60z m66 15 c7 -27 -10 -55 -32 -55 -10 0 -14 13 -14 40 0 33
3 40 20 40 13 0 22 -9 26 -25z"/>
<path d="M1920 1280 l0 -60 35 0 c19 0 35 5 35 10 0 6 -11 10 -25 10 -14 0
-25 5 -25 10 0 6 9 10 20 10 11 0 20 5 20 10 0 6 -8 10 -18 10 -11 0 -18 7
-18 20 0 14 7 20 23 20 13 0 23 5 23 10 0 6 -16 10 -35 10 l-35 0 0 -60z"/>
<path d="M1090 1136 c0 -51 3 -64 14 -60 7 3 13 12 12 21 0 9 7 17 17 18 11 2
17 -3 17 -16 0 -10 6 -19 13 -19 16 0 15 112 -1 118 -8 2 -12 -9 -12 -32 0
-30 -4 -36 -21 -36 -17 0 -20 5 -17 32 2 18 -2 33 -9 35 -10 4 -13 -13 -13
-61z"/>
<path d="M1214 1175 c-26 -27 -26 -55 1 -84 18 -18 63 -17 82 2 23 23 19 68
-7 89 -30 24 -46 23 -76 -7z m72 -27 c9 -29 -20 -57 -44 -42 -23 15 -26 38 -7
57 19 19 42 12 51 -15z"/>
<path d="M1341 1151 c-6 -29 -11 -59 -11 -68 0 -25 17 -3 22 27 l4 25 13 -30
c13 -30 13 -30 24 -7 12 27 27 29 27 3 0 -10 7 -21 15 -25 18 -6 18 -6 1 64
l-13 55 -18 -35 -18 -35 -18 39 -17 39 -11 -52z"/>
<path d="M1470 1138 c0 -58 0 -58 30 -58 17 0 30 5 30 10 0 6 -10 10 -22 10
-12 0 -18 3 -14 8 4 4 13 7 19 7 5 0 12 6 15 13 3 9 -3 12 -14 10 -13 -2 -19
3 -19 17 0 14 6 19 18 17 10 -2 17 3 17 12 0 11 -9 15 -30 13 -30 -2 -30 -3
-30 -59z"/>
<path d="M1567 1159 c-4 -24 -10 -54 -13 -66 -4 -14 -2 -23 5 -23 6 0 14 15
19 33 l8 32 7 -27 c4 -16 11 -28 15 -28 5 0 13 12 19 28 l11 27 1 -27 c1 -19
6 -28 17 -28 13 0 15 7 10 38 -14 76 -17 79 -36 42 l-18 -34 -19 38 -20 39 -6
-44z"/>
<path d="M1800 1139 l0 -59 34 0 c34 0 66 27 66 56 0 24 -36 54 -67 58 l-33 3
0 -58z m70 6 c0 -27 -12 -45 -31 -45 -15 0 -19 7 -19 33 0 19 3 37 6 40 10 10
44 -12 44 -28z"/>
<path d="M1919 1195 c0 0 -1 -26 -2 -58 l-2 -57 33 0 c17 0 32 5 32 10 0 6 -9
10 -20 10 -11 0 -20 4 -20 10 0 5 7 7 15 4 9 -4 15 0 15 10 0 10 -6 13 -15 10
-11 -5 -15 1 -15 19 0 20 4 24 20 20 14 -4 20 0 20 10 0 12 -8 16 -30 14 -16
-1 -30 -2 -31 -2z"/>
<path d="M1716 1156 c-9 -22 -19 -51 -23 -64 -5 -22 -4 -23 15 -11 16 10 26
10 47 1 25 -12 26 -11 19 10 -4 13 -15 41 -24 63 l-17 40 -17 -39z m24 -36 c0
-5 -4 -10 -10 -10 -5 0 -10 5 -10 10 0 6 5 10 10 10 6 0 10 -4 10 -10z"/>
</g>
</svg>
